<mxfile host="app.diagrams.net" agent="Mozilla/5.0 (Windows NT 10.0; Win64; x64) AppleWebKit/537.36 (KHTML, like Gecko) Chrome/134.0.0.0 Safari/537.36" version="26.0.16">
  <diagram name="Page-1" id="c4acf3e9-155e-7222-9cf6-157b1a14988f">
    <mxGraphModel dx="2924" dy="2232" grid="1" gridSize="10" guides="1" tooltips="1" connect="1" arrows="1" fold="1" page="1" pageScale="1" pageWidth="850" pageHeight="1100" background="none" math="0" shadow="0">
      <root>
        <mxCell id="0" />
        <mxCell id="1" parent="0" />
        <mxCell id="h1MowxUoezg9GplHGQxy-2" value="BoardInterface" style="swimlane;fontStyle=1;align=center;verticalAlign=top;childLayout=stackLayout;horizontal=1;startSize=26;horizontalStack=0;resizeParent=1;resizeParentMax=0;resizeLast=0;collapsible=1;marginBottom=0;whiteSpace=wrap;html=1;" parent="1" vertex="1">
          <mxGeometry x="-450" y="-820" width="200" height="120" as="geometry" />
        </mxCell>
        <mxCell id="h1MowxUoezg9GplHGQxy-3" value="- currentGame: BoardInterface" style="text;strokeColor=none;fillColor=none;align=left;verticalAlign=top;spacingLeft=4;spacingRight=4;overflow=hidden;rotatable=0;points=[[0,0.5],[1,0.5]];portConstraint=eastwest;whiteSpace=wrap;html=1;" parent="h1MowxUoezg9GplHGQxy-2" vertex="1">
          <mxGeometry y="26" width="200" height="34" as="geometry" />
        </mxCell>
        <mxCell id="h1MowxUoezg9GplHGQxy-4" value="" style="line;strokeWidth=1;fillColor=none;align=left;verticalAlign=middle;spacingTop=-1;spacingLeft=3;spacingRight=3;rotatable=0;labelPosition=right;points=[];portConstraint=eastwest;strokeColor=inherit;" parent="h1MowxUoezg9GplHGQxy-2" vertex="1">
          <mxGeometry y="60" width="200" height="8" as="geometry" />
        </mxCell>
        <mxCell id="h1MowxUoezg9GplHGQxy-5" value="+ move(posStart, posEnd)&lt;div&gt;+ getBoard()&lt;/div&gt;&lt;div&gt;+ getValidMoves&lt;/div&gt;" style="text;strokeColor=none;fillColor=none;align=left;verticalAlign=top;spacingLeft=4;spacingRight=4;overflow=hidden;rotatable=0;points=[[0,0.5],[1,0.5]];portConstraint=eastwest;whiteSpace=wrap;html=1;" parent="h1MowxUoezg9GplHGQxy-2" vertex="1">
          <mxGeometry y="68" width="200" height="52" as="geometry" />
        </mxCell>
        <mxCell id="h1MowxUoezg9GplHGQxy-7" value="GameState&lt;div&gt;&lt;br&gt;&lt;/div&gt;" style="swimlane;fontStyle=1;align=center;verticalAlign=top;childLayout=stackLayout;horizontal=1;startSize=26;horizontalStack=0;resizeParent=1;resizeParentMax=0;resizeLast=0;collapsible=1;marginBottom=0;whiteSpace=wrap;html=1;" parent="1" vertex="1">
          <mxGeometry x="-550" y="-580" width="210" height="204" as="geometry" />
        </mxCell>
        <mxCell id="h1MowxUoezg9GplHGQxy-8" value="- board : Board&lt;div&gt;- currentPlayer : bool&lt;/div&gt;&lt;div&gt;- moveHistory : vector&amp;lt;move&amp;gt;&lt;/div&gt;&lt;div&gt;- gameStatus : enum&lt;/div&gt;" style="text;strokeColor=none;fillColor=none;align=left;verticalAlign=top;spacingLeft=4;spacingRight=4;overflow=hidden;rotatable=0;points=[[0,0.5],[1,0.5]];portConstraint=eastwest;whiteSpace=wrap;html=1;" parent="h1MowxUoezg9GplHGQxy-7" vertex="1">
          <mxGeometry y="26" width="210" height="70" as="geometry" />
        </mxCell>
        <mxCell id="h1MowxUoezg9GplHGQxy-9" value="" style="line;strokeWidth=1;fillColor=none;align=left;verticalAlign=middle;spacingTop=-1;spacingLeft=3;spacingRight=3;rotatable=0;labelPosition=right;points=[];portConstraint=eastwest;strokeColor=inherit;" parent="h1MowxUoezg9GplHGQxy-7" vertex="1">
          <mxGeometry y="96" width="210" height="8" as="geometry" />
        </mxCell>
        <mxCell id="h1MowxUoezg9GplHGQxy-10" value="&lt;div&gt;+ startNewGame()&lt;/div&gt;+ isWhiteTurn() : bool&lt;div&gt;+ applyMove(Move) : bool&lt;/div&gt;&lt;div&gt;+ isGameOver() : bool&lt;/div&gt;&lt;div&gt;+ getLegalMoves()&lt;/div&gt;&lt;div&gt;+ checkGameState()&lt;/div&gt;" style="text;strokeColor=none;fillColor=none;align=left;verticalAlign=top;spacingLeft=4;spacingRight=4;overflow=hidden;rotatable=0;points=[[0,0.5],[1,0.5]];portConstraint=eastwest;whiteSpace=wrap;html=1;" parent="h1MowxUoezg9GplHGQxy-7" vertex="1">
          <mxGeometry y="104" width="210" height="100" as="geometry" />
        </mxCell>
        <mxCell id="h1MowxUoezg9GplHGQxy-12" value="Window" style="swimlane;fontStyle=1;align=center;verticalAlign=top;childLayout=stackLayout;horizontal=1;startSize=26;horizontalStack=0;resizeParent=1;resizeParentMax=0;resizeLast=0;collapsible=1;marginBottom=0;whiteSpace=wrap;html=1;" parent="1" vertex="1">
          <mxGeometry x="-440" y="-1070" width="180" height="194" as="geometry" />
        </mxCell>
        <mxCell id="h1MowxUoezg9GplHGQxy-13" value="- screenDimentions&lt;div&gt;- title&lt;/div&gt;&lt;div&gt;- frameRate&lt;/div&gt;&lt;div&gt;&lt;div&gt;- boardColors&lt;/div&gt;&lt;div&gt;- pieceColors&lt;/div&gt;&lt;/div&gt;" style="text;strokeColor=none;fillColor=none;align=left;verticalAlign=top;spacingLeft=4;spacingRight=4;overflow=hidden;rotatable=0;points=[[0,0.5],[1,0.5]];portConstraint=eastwest;whiteSpace=wrap;html=1;" parent="h1MowxUoezg9GplHGQxy-12" vertex="1">
          <mxGeometry y="26" width="180" height="90" as="geometry" />
        </mxCell>
        <mxCell id="h1MowxUoezg9GplHGQxy-14" value="" style="line;strokeWidth=1;fillColor=none;align=left;verticalAlign=middle;spacingTop=-1;spacingLeft=3;spacingRight=3;rotatable=0;labelPosition=right;points=[];portConstraint=eastwest;strokeColor=inherit;" parent="h1MowxUoezg9GplHGQxy-12" vertex="1">
          <mxGeometry y="116" width="180" height="8" as="geometry" />
        </mxCell>
        <mxCell id="h1MowxUoezg9GplHGQxy-15" value="&lt;div&gt;+ initializeWindow()&lt;/div&gt;+ render(gameState, assets)&lt;div&gt;+ pollEvents()&lt;/div&gt;&lt;div&gt;+ closeWindow()&lt;/div&gt;" style="text;strokeColor=none;fillColor=none;align=left;verticalAlign=top;spacingLeft=4;spacingRight=4;overflow=hidden;rotatable=0;points=[[0,0.5],[1,0.5]];portConstraint=eastwest;whiteSpace=wrap;html=1;" parent="h1MowxUoezg9GplHGQxy-12" vertex="1">
          <mxGeometry y="124" width="180" height="70" as="geometry" />
        </mxCell>
        <mxCell id="h1MowxUoezg9GplHGQxy-18" style="edgeStyle=orthogonalEdgeStyle;rounded=0;orthogonalLoop=1;jettySize=auto;html=1;" parent="1" source="h1MowxUoezg9GplHGQxy-12" target="h1MowxUoezg9GplHGQxy-2" edge="1">
          <mxGeometry relative="1" as="geometry">
            <mxPoint x="80" y="-60" as="targetPoint" />
          </mxGeometry>
        </mxCell>
        <mxCell id="h1MowxUoezg9GplHGQxy-46" style="edgeStyle=orthogonalEdgeStyle;rounded=0;orthogonalLoop=1;jettySize=auto;html=1;endArrow=diamondThin;endFill=0;" parent="1" source="h1MowxUoezg9GplHGQxy-51" target="h1MowxUoezg9GplHGQxy-42" edge="1">
          <mxGeometry relative="1" as="geometry">
            <mxPoint x="-460" y="-274" as="sourcePoint" />
          </mxGeometry>
        </mxCell>
        <mxCell id="h1MowxUoezg9GplHGQxy-23" style="edgeStyle=orthogonalEdgeStyle;rounded=0;orthogonalLoop=1;jettySize=auto;html=1;" parent="1" source="h1MowxUoezg9GplHGQxy-42" target="h1MowxUoezg9GplHGQxy-7" edge="1">
          <mxGeometry relative="1" as="geometry">
            <mxPoint x="-590" y="-600" as="sourcePoint" />
            <mxPoint x="-530" y="-580" as="targetPoint" />
          </mxGeometry>
        </mxCell>
        <mxCell id="h1MowxUoezg9GplHGQxy-42" value="Board" style="swimlane;fontStyle=1;align=center;verticalAlign=top;childLayout=stackLayout;horizontal=1;startSize=26;horizontalStack=0;resizeParent=1;resizeParentMax=0;resizeLast=0;collapsible=1;marginBottom=0;whiteSpace=wrap;html=1;" parent="1" vertex="1">
          <mxGeometry x="-270" y="-570" width="220" height="204" as="geometry" />
        </mxCell>
        <mxCell id="h1MowxUoezg9GplHGQxy-43" value="&lt;div&gt;- width : const int&lt;/div&gt;&lt;div&gt;- height : const int&lt;/div&gt;- grid : vector&amp;lt;vector&amp;lt;piece&amp;gt;&amp;gt;&lt;div&gt;- moveHistory : vector&amp;lt;move&amp;gt;&lt;/div&gt;" style="text;strokeColor=none;fillColor=none;align=left;verticalAlign=top;spacingLeft=4;spacingRight=4;overflow=hidden;rotatable=0;points=[[0,0.5],[1,0.5]];portConstraint=eastwest;whiteSpace=wrap;html=1;" parent="h1MowxUoezg9GplHGQxy-42" vertex="1">
          <mxGeometry y="26" width="220" height="70" as="geometry" />
        </mxCell>
        <mxCell id="h1MowxUoezg9GplHGQxy-44" value="" style="line;strokeWidth=1;fillColor=none;align=left;verticalAlign=middle;spacingTop=-1;spacingLeft=3;spacingRight=3;rotatable=0;labelPosition=right;points=[];portConstraint=eastwest;strokeColor=inherit;" parent="h1MowxUoezg9GplHGQxy-42" vertex="1">
          <mxGeometry y="96" width="220" height="8" as="geometry" />
        </mxCell>
        <mxCell id="h1MowxUoezg9GplHGQxy-45" value="+ initializeBoard()&lt;div&gt;+ getBoard():vector&amp;lt;vector&amp;lt;piece&amp;gt;&amp;gt;&lt;div&gt;+ movePiece(move)&lt;/div&gt;&lt;div&gt;+ setPiece(pos, piece)&lt;/div&gt;&lt;div&gt;+ getPiece(pos)&lt;/div&gt;&lt;div&gt;+ copy()&lt;/div&gt;&lt;/div&gt;" style="text;strokeColor=none;fillColor=none;align=left;verticalAlign=top;spacingLeft=4;spacingRight=4;overflow=hidden;rotatable=0;points=[[0,0.5],[1,0.5]];portConstraint=eastwest;whiteSpace=wrap;html=1;" parent="h1MowxUoezg9GplHGQxy-42" vertex="1">
          <mxGeometry y="104" width="220" height="100" as="geometry" />
        </mxCell>
        <mxCell id="h1MowxUoezg9GplHGQxy-76" style="edgeStyle=orthogonalEdgeStyle;rounded=0;orthogonalLoop=1;jettySize=auto;html=1;endArrow=block;endFill=0;" parent="1" source="h1MowxUoezg9GplHGQxy-67" target="h1MowxUoezg9GplHGQxy-51" edge="1">
          <mxGeometry relative="1" as="geometry">
            <Array as="points">
              <mxPoint x="-600" y="-437" />
              <mxPoint x="-600" y="-264" />
            </Array>
            <mxPoint x="-130" y="-500" as="targetPoint" />
          </mxGeometry>
        </mxCell>
        <mxCell id="h1MowxUoezg9GplHGQxy-67" value="King" style="html=1;whiteSpace=wrap;" parent="1" vertex="1">
          <mxGeometry x="-770" y="-462" width="110" height="50" as="geometry" />
        </mxCell>
        <mxCell id="h1MowxUoezg9GplHGQxy-77" style="edgeStyle=orthogonalEdgeStyle;rounded=0;orthogonalLoop=1;jettySize=auto;html=1;endArrow=block;endFill=0;" parent="1" source="h1MowxUoezg9GplHGQxy-78" target="h1MowxUoezg9GplHGQxy-51" edge="1">
          <mxGeometry relative="1" as="geometry">
            <mxPoint x="-130" y="-500" as="targetPoint" />
            <Array as="points">
              <mxPoint x="-600" y="-367" />
              <mxPoint x="-600" y="-264" />
            </Array>
          </mxGeometry>
        </mxCell>
        <mxCell id="h1MowxUoezg9GplHGQxy-78" value="Queen" style="html=1;whiteSpace=wrap;" parent="1" vertex="1">
          <mxGeometry x="-770" y="-392" width="110" height="50" as="geometry" />
        </mxCell>
        <mxCell id="h1MowxUoezg9GplHGQxy-79" style="edgeStyle=orthogonalEdgeStyle;rounded=0;orthogonalLoop=1;jettySize=auto;html=1;endArrow=block;endFill=0;" parent="1" source="h1MowxUoezg9GplHGQxy-80" target="h1MowxUoezg9GplHGQxy-51" edge="1">
          <mxGeometry relative="1" as="geometry">
            <mxPoint x="-130" y="-500" as="targetPoint" />
            <Array as="points">
              <mxPoint x="-600" y="-297" />
              <mxPoint x="-600" y="-264" />
            </Array>
          </mxGeometry>
        </mxCell>
        <mxCell id="h1MowxUoezg9GplHGQxy-80" value="Rook" style="html=1;whiteSpace=wrap;" parent="1" vertex="1">
          <mxGeometry x="-770" y="-322" width="110" height="50" as="geometry" />
        </mxCell>
        <mxCell id="h1MowxUoezg9GplHGQxy-81" style="edgeStyle=orthogonalEdgeStyle;rounded=0;orthogonalLoop=1;jettySize=auto;html=1;endArrow=block;endFill=0;" parent="1" source="h1MowxUoezg9GplHGQxy-82" target="h1MowxUoezg9GplHGQxy-51" edge="1">
          <mxGeometry relative="1" as="geometry">
            <mxPoint x="-130" y="-500" as="targetPoint" />
            <Array as="points">
              <mxPoint x="-600" y="-227" />
              <mxPoint x="-600" y="-264" />
            </Array>
          </mxGeometry>
        </mxCell>
        <mxCell id="h1MowxUoezg9GplHGQxy-82" value="Bishop" style="html=1;whiteSpace=wrap;" parent="1" vertex="1">
          <mxGeometry x="-770" y="-252" width="110" height="50" as="geometry" />
        </mxCell>
        <mxCell id="h1MowxUoezg9GplHGQxy-83" style="edgeStyle=orthogonalEdgeStyle;rounded=0;orthogonalLoop=1;jettySize=auto;html=1;endArrow=block;endFill=0;" parent="1" source="h1MowxUoezg9GplHGQxy-84" target="h1MowxUoezg9GplHGQxy-51" edge="1">
          <mxGeometry relative="1" as="geometry">
            <mxPoint x="-130" y="-500" as="targetPoint" />
            <Array as="points">
              <mxPoint x="-600" y="-159" />
              <mxPoint x="-600" y="-264" />
            </Array>
          </mxGeometry>
        </mxCell>
        <mxCell id="h1MowxUoezg9GplHGQxy-84" value="Knight" style="html=1;whiteSpace=wrap;" parent="1" vertex="1">
          <mxGeometry x="-770" y="-184" width="110" height="50" as="geometry" />
        </mxCell>
        <mxCell id="h1MowxUoezg9GplHGQxy-86" value="Pawn" style="html=1;whiteSpace=wrap;" parent="1" vertex="1">
          <mxGeometry x="-770" y="-110" width="110" height="50" as="geometry" />
        </mxCell>
        <mxCell id="h1MowxUoezg9GplHGQxy-87" style="edgeStyle=orthogonalEdgeStyle;rounded=0;orthogonalLoop=1;jettySize=auto;html=1;" parent="1" source="h1MowxUoezg9GplHGQxy-2" target="h1MowxUoezg9GplHGQxy-7" edge="1">
          <mxGeometry relative="1" as="geometry">
            <mxPoint x="-100" y="-576.5" as="sourcePoint" />
            <mxPoint x="-170" y="-520" as="targetPoint" />
          </mxGeometry>
        </mxCell>
        <mxCell id="h1MowxUoezg9GplHGQxy-103" style="edgeStyle=orthogonalEdgeStyle;rounded=0;orthogonalLoop=1;jettySize=auto;html=1;dashed=1;entryX=0;entryY=0.5;entryDx=0;entryDy=0;" parent="1" source="h1MowxUoezg9GplHGQxy-98" target="h1MowxUoezg9GplHGQxy-3" edge="1">
          <mxGeometry relative="1" as="geometry">
            <mxPoint x="-50" y="-466" as="targetPoint" />
          </mxGeometry>
        </mxCell>
        <mxCell id="h1MowxUoezg9GplHGQxy-98" value="Move" style="swimlane;fontStyle=1;align=center;verticalAlign=top;childLayout=stackLayout;horizontal=1;startSize=26;horizontalStack=0;resizeParent=1;resizeParentMax=0;resizeLast=0;collapsible=1;marginBottom=0;whiteSpace=wrap;html=1;" parent="1" vertex="1">
          <mxGeometry x="-730" y="-805" width="160" height="184" as="geometry" />
        </mxCell>
        <mxCell id="h1MowxUoezg9GplHGQxy-99" value="- startPos&lt;div&gt;- endPos&lt;/div&gt;&lt;div&gt;- piece&lt;/div&gt;" style="text;strokeColor=none;fillColor=none;align=left;verticalAlign=top;spacingLeft=4;spacingRight=4;overflow=hidden;rotatable=0;points=[[0,0.5],[1,0.5]];portConstraint=eastwest;whiteSpace=wrap;html=1;" parent="h1MowxUoezg9GplHGQxy-98" vertex="1">
          <mxGeometry y="26" width="160" height="60" as="geometry" />
        </mxCell>
        <mxCell id="h1MowxUoezg9GplHGQxy-100" value="" style="line;strokeWidth=1;fillColor=none;align=left;verticalAlign=middle;spacingTop=-1;spacingLeft=3;spacingRight=3;rotatable=0;labelPosition=right;points=[];portConstraint=eastwest;strokeColor=inherit;" parent="h1MowxUoezg9GplHGQxy-98" vertex="1">
          <mxGeometry y="86" width="160" height="8" as="geometry" />
        </mxCell>
        <mxCell id="h1MowxUoezg9GplHGQxy-101" value="+ isCapture()&lt;div&gt;+ isCheck()&lt;/div&gt;&lt;div&gt;+ isEnpassant()&lt;/div&gt;&lt;div&gt;+ isCastle()&lt;/div&gt;&lt;div&gt;+ isPromotion()&lt;/div&gt;" style="text;strokeColor=none;fillColor=none;align=left;verticalAlign=top;spacingLeft=4;spacingRight=4;overflow=hidden;rotatable=0;points=[[0,0.5],[1,0.5]];portConstraint=eastwest;whiteSpace=wrap;html=1;" parent="h1MowxUoezg9GplHGQxy-98" vertex="1">
          <mxGeometry y="94" width="160" height="90" as="geometry" />
        </mxCell>
        <mxCell id="kU5pF0vmC-FzhfSvneUf-2" value="" style="edgeStyle=orthogonalEdgeStyle;rounded=0;orthogonalLoop=1;jettySize=auto;html=1;endArrow=block;endFill=0;" edge="1" parent="1" target="h1MowxUoezg9GplHGQxy-51">
          <mxGeometry relative="1" as="geometry">
            <mxPoint x="-130" y="-500" as="targetPoint" />
            <mxPoint x="-660" y="-84" as="sourcePoint" />
            <Array as="points">
              <mxPoint x="-600" y="-84" />
              <mxPoint x="-600" y="-264" />
            </Array>
          </mxGeometry>
        </mxCell>
        <mxCell id="h1MowxUoezg9GplHGQxy-51" value="&lt;div&gt;&amp;lt;&amp;lt;abstract&amp;gt;&amp;gt;&lt;/div&gt;Piece" style="swimlane;fontStyle=1;align=center;verticalAlign=top;childLayout=stackLayout;horizontal=1;startSize=40;horizontalStack=0;resizeParent=1;resizeParentMax=0;resizeLast=0;collapsible=1;marginBottom=0;whiteSpace=wrap;html=1;" parent="1" vertex="1">
          <mxGeometry x="-440" y="-280" width="160" height="180" as="geometry" />
        </mxCell>
        <mxCell id="h1MowxUoezg9GplHGQxy-52" value="- square : pos&lt;div&gt;- isWhite : bool&lt;/div&gt;" style="text;strokeColor=none;fillColor=none;align=left;verticalAlign=top;spacingLeft=4;spacingRight=4;overflow=hidden;rotatable=0;points=[[0,0.5],[1,0.5]];portConstraint=eastwest;whiteSpace=wrap;html=1;" parent="h1MowxUoezg9GplHGQxy-51" vertex="1">
          <mxGeometry y="40" width="160" height="40" as="geometry" />
        </mxCell>
        <mxCell id="h1MowxUoezg9GplHGQxy-53" value="" style="line;strokeWidth=1;fillColor=none;align=left;verticalAlign=middle;spacingTop=-1;spacingLeft=3;spacingRight=3;rotatable=0;labelPosition=right;points=[];portConstraint=eastwest;strokeColor=inherit;" parent="h1MowxUoezg9GplHGQxy-51" vertex="1">
          <mxGeometry y="80" width="160" height="10" as="geometry" />
        </mxCell>
        <mxCell id="h1MowxUoezg9GplHGQxy-54" value="+ canMoveTo(pos)&lt;div&gt;+ location() : pos&lt;/div&gt;&lt;div&gt;+ isOnSqure(pos) : bool&lt;/div&gt;&lt;div&gt;+ setLocation(pos)&lt;/div&gt;&lt;div&gt;+ moveTo(pos)&lt;/div&gt;" style="text;strokeColor=none;fillColor=none;align=left;verticalAlign=top;spacingLeft=4;spacingRight=4;overflow=hidden;rotatable=0;points=[[0,0.5],[1,0.5]];portConstraint=eastwest;whiteSpace=wrap;html=1;" parent="h1MowxUoezg9GplHGQxy-51" vertex="1">
          <mxGeometry y="90" width="160" height="90" as="geometry" />
        </mxCell>
        <mxCell id="kU5pF0vmC-FzhfSvneUf-3" style="edgeStyle=orthogonalEdgeStyle;rounded=0;orthogonalLoop=1;jettySize=auto;html=1;dashed=1;entryX=0.006;entryY=0.257;entryDx=0;entryDy=0;entryPerimeter=0;" edge="1" parent="1" source="h1MowxUoezg9GplHGQxy-98" target="h1MowxUoezg9GplHGQxy-8">
          <mxGeometry relative="1" as="geometry">
            <mxPoint x="-240" y="-703" as="targetPoint" />
            <mxPoint x="-180" y="-540" as="sourcePoint" />
          </mxGeometry>
        </mxCell>
      </root>
    </mxGraphModel>
  </diagram>
</mxfile>
